<svg xmlns="http://www.w3.org/2000/svg" width="421.562" height="69.594" viewBox="0 0 421.562 69.594">
  <defs>
    <style>
      .cls-1 {
        fill: #039;
        fill-rule: evenodd;
      }
    </style>
  </defs>
  <path id="テストサイト" class="cls-1" d="M252.853,286.254v13.575h52.273V286.254H252.853Zm-5.924,18.9v13.574h26.024l-0.075,1.425c-0.525,10.649-3.9,15.524-24,18.449l5.774,13.35c24-4.5,32.624-12.975,33.6-31.8l0.075-1.425h22.649V305.154H246.929Zm81.45,46.648c13.724-5.85,23.174-14.775,28.573-20.475a275.487,275.487,0,0,1,20.475,21.15l12.524-12.15a157.282,157.282,0,0,0-23.924-20.1c9.225-13.875,11.474-24.224,12.824-32.7H325V301.4h34.2c-1.875,4.724-4.8,12.074-14.4,21.824-11.7,11.774-20.849,14.924-24.524,16.2ZM403.6,284.754v65.923h16.049V317.153c8.1,3.45,20.25,10.125,26.924,15.374L454.6,317c-10.425-6.375-24.9-12.149-34.949-15.374V284.754H403.6Zm99.9,12.075H487.753v-12H473.2v12H463v14.024h10.2V327.5h14.55v-16.65H503.5v7.425c0,13.574-6.45,17.849-28.5,19.949l5.4,13.575c22.124-3.375,38.324-8.475,38.324-33.374v-7.575h10.8V296.829h-10.8v-12H503.5v12Zm78.15,15c13.5-9.524,19.5-16.2,22.574-19.574L591.4,282.879c-15.75,18.15-31.2,27.449-55.2,35.7l7.275,12.824a104.922,104.922,0,0,0,22.5-9.6v28.949h15.674V311.828ZM617.5,284.754v65.923h16.049V317.153c8.1,3.45,20.25,10.125,26.924,15.374L668.5,317c-10.425-6.375-24.9-12.149-34.949-15.374V284.754H617.5Z" transform="translate(-246.938 -282.875)"/>
</svg>
